<svg width="114" height="110" viewBox="0 0 114 110" fill="none" xmlns="http://www.w3.org/2000/svg">
<path d="M93.1579 57.7454L93.4841 76.1419L80.8559 96.9805L49.3527 104.664L32.3099 103.465L22.4573 97.5204L20.8361 94.8564L13.9584 90.938L12.388 83.7039L13.8217 77.3021L13.349 69.3711L15.5387 63.8665L4.95166 62.1723C4.95166 62.1723 7.34057 61.0278 10.7159 58.6308C14.0932 56.2338 17.3123 57.5884 17.3123 57.5884L11.507 47.225L18.7714 48.4932C18.7714 48.4932 14.353 38.4911 16.0231 37.1306C17.6932 35.7702 21.092 31.5063 21.092 31.5063L24.1626 34.6865L27.9208 40.8645C27.9208 40.8645 32.7103 29.4312 36.4392 26.0311L35.4782 37.0874C35.4782 37.0874 38.3144 22.5995 53.8551 19.4095L51.7689 29.392C51.7689 29.392 62.52 18.6026 68.3526 19.7059C74.1833 20.8072 81.7739 31.3708 81.7739 31.3708L88.0753 43.3734C88.0753 43.3734 90.7006 44.6808 90.8237 46.2513C90.9506 47.8218 93.1579 57.7454 93.1579 57.7454Z" fill="url(#paint0_linear_193_159)"/>
<path d="M51.5619 23.1885C51.7943 22.7998 52.0268 22.413 52.4643 21.6808C40.9534 26.0075 35.4938 34.449 34.0171 45.9843C31.093 40.1813 33.0405 28.114 37.6191 24.9651C37.4257 25.8662 37.2929 26.5278 37.1424 27.1854C36.9803 27.8941 36.8026 28.5969 36.5272 29.7316C41.973 22.2658 49.4249 19.0129 57.6836 16.7043C56.3163 19.8374 55.0466 22.7468 53.7945 25.6208C60.1311 20.5422 66.1864 15.3163 72.6304 10.6264C79.094 5.92276 86.2392 2.39502 94.3612 0C92.8376 5.88939 91.4331 11.3292 89.9799 16.9497C91.7867 15.6069 93.4138 14.3995 95.039 13.1922C93.7595 21.7888 91.4605 29.8612 86.6533 37.0972C87.5616 37.1915 88.3527 37.2739 89.6243 37.4074C88.4621 38.069 87.7726 38.4616 86.6436 39.1055C88.5207 39.1821 89.9193 39.239 91.3179 39.296C91.3316 39.3804 91.3433 39.4628 91.3569 39.5472C90.6616 39.8829 89.9662 40.2206 89.2708 40.5563C89.2942 40.6623 89.3177 40.7703 89.3392 40.8763C92.2594 40.5386 95.1816 40.201 98.6389 39.8024C96.1133 43.2517 93.9002 46.2749 91.4917 49.5631C96.3262 49.2156 100.727 49.8478 105.411 51.1552C104.559 51.6401 104.04 51.9346 103.391 52.3036C104.071 52.4901 104.591 52.6256 105.108 52.7748C108.415 53.7328 111.539 54.7183 112.834 58.6171C113.621 60.9905 113.812 63.0537 112.531 65.1857C111.3 67.2332 109.423 68.5132 107.153 68.8626C104.489 69.2729 101.764 69.2886 99.1839 69.4673C97.2189 70.6785 96.3516 72.2628 98.5569 74.1493C96.2735 75.2467 96.2481 75.2664 97.6506 77.0116C98.4299 77.9814 98.2717 78.5625 97.086 78.8746C96.7403 78.9649 96.3907 79.0356 95.9473 79.1376C96.5704 80.3469 97.1349 81.4443 97.8166 82.7694C96.67 82.8283 95.7402 82.8755 94.703 82.9265C94.996 84.3576 95.2616 85.6651 95.5742 87.1943C94.6503 86.8292 93.9705 86.5622 93.0759 86.2088C93.1032 87.6753 93.1286 88.9533 93.156 90.4472C92.3629 90.1979 91.7378 90.0036 90.9936 89.77C90.9096 90.9557 90.8335 92.0177 90.7573 93.1151C90.224 93.0013 89.8294 92.9188 89.3372 92.8128C89.3118 93.7158 89.2903 94.4991 89.2649 95.4807C88.3762 95.1273 87.6886 94.8545 86.8916 94.5384C86.7451 95.5946 86.6084 96.5781 86.4678 97.5852C85.7021 97.3849 85.0887 97.224 84.4617 97.0591C83.2975 99.083 82.2486 101.06 81.0551 102.945C78.6369 106.757 74.992 108.553 71.4448 107.585C69.2238 106.979 67.0771 106.089 64.7644 105.279C63.9674 106.991 62.9849 107.878 61.4555 106.046C60.9203 106.788 60.4866 107.387 59.9416 108.141C59.0783 107.605 58.2794 107.108 57.4277 106.578C56.6737 107.267 55.9627 107.917 55.2224 108.592C54.5544 108.164 53.9391 107.77 53.357 107.397C52.8355 107.862 52.4467 108.21 52.017 108.592C51.5775 108.139 51.2122 107.764 50.7044 107.242C49.8957 108.5 49.0128 109.152 47.8799 107.707C47.7607 107.554 47.0985 107.701 46.7723 107.872C46.3719 108.084 46.0633 108.467 45.6414 108.842C45.2702 108.178 44.987 107.672 44.6745 107.114C43.9478 107.495 43.2896 107.839 42.6704 108.163C42.2074 107.748 41.8285 107.409 41.4612 107.079C37.0721 111.076 33.3237 110.98 29.3487 106.704C27.8837 105.129 26.6883 103.302 25.3541 101.568C24.9146 101.761 24.3872 101.99 23.5082 102.373C24.0122 98.9888 21.8772 98.9653 19.7188 99.2126C19.8126 98.0602 19.8887 97.1278 19.9786 96.0363C19.1269 96.2522 18.5644 96.3936 17.994 96.5388C17.8729 96.1933 17.7616 95.8753 17.6502 95.5573C17.6307 95.7261 17.6112 95.8949 17.5916 96.0638C15.359 96.3425 13.1185 96.8902 10.8956 96.8313C7.89729 96.7508 6.026 94.3264 6.02796 91.3169C6.03186 88.2583 7.77227 86.1362 9.59863 83.9905C10.5401 82.8853 11.298 81.619 12.1204 80.4137C12.1887 80.3136 12.1165 80.1173 12.1106 79.9916C11.6184 79.8483 11.1672 79.7148 10.6437 79.5617C10.9621 78.8118 11.2804 78.1816 11.4894 77.5161C11.6086 77.1333 11.6535 76.3657 11.548 76.3304C9.58691 75.6767 10.8995 74.86 11.384 74.061C11.5969 73.7096 11.7238 73.3072 11.8821 72.9459C11.3234 72.4787 10.8742 72.1038 10.253 71.5855C11.3 70.8336 12.2376 70.1622 13.3471 69.3672C12.5384 68.8371 11.8899 68.4111 11.1359 67.9164C11.9329 67.2411 12.6439 66.6364 13.599 65.8257C8.76261 64.8657 4.35005 63.6015 0 61.0356C4.89308 59.3689 9.47167 57.8083 14.0932 56.2338C10.5987 50.366 9.17085 46.1394 9.85842 43.8936C11.7961 45.0695 13.7397 46.2494 15.818 47.5097C15.0758 44.3373 14.2905 41.5575 13.8022 38.7266C13.3021 35.8271 13.7241 32.9393 14.6949 30.1615C15.6539 27.4112 17.1775 25.0692 19.7208 23.4731C19.4336 25.1771 18.8867 26.7594 18.4999 28.381C18.1054 30.0418 17.869 31.7399 17.5623 33.4223C18.7949 31.0115 19.7911 28.5733 22.0804 26.8183C22.4437 28.3633 22.764 29.7218 23.1 31.149C26.1101 26.3903 27.0516 25.3715 28.7471 25.0122C28.5342 25.7052 28.3173 26.3982 28.0966 27.1088C30.7668 25.5894 33.312 24.1406 35.8552 22.6918C36.0095 22.839 36.1638 22.9863 36.3181 23.1335C32.6068 30.7249 28.4052 38.2202 31.386 47.2604C27.4715 43.3773 25.0221 38.5912 21.6858 33.8797C21.7835 37.9532 23.395 41.0235 24.9752 44.1017C24.8443 44.19 24.7134 44.2764 24.5806 44.3647C22.848 41.9285 21.1154 39.4923 19.3828 37.0541C19.2617 37.0972 19.1406 37.1404 19.0195 37.1836C19.7579 39.4766 20.4962 41.7695 21.2346 44.0624C21.1936 44.1135 21.1506 44.1645 21.1096 44.2155C19.9493 42.7727 18.791 41.3278 17.4432 39.6513C18.1425 45.0067 20.8068 48.9369 24.272 52.5078C22.8168 51.9542 21.3615 51.4006 19.7403 50.7822C19.9962 51.3437 20.1681 51.7206 20.3419 52.0995C20.2501 52.1937 20.1583 52.2899 20.0684 52.3841C17.9237 51.1415 15.7809 49.9008 13.3939 48.5187C15.1871 54.0253 19.3789 57.2232 23.352 60.5979C17.1814 58.835 10.4913 59.1255 7.8465 61.3713C13.9252 62.7887 20.1134 63.8567 25.2701 67.9144C22.6859 69.4241 21.7073 71.4245 22.3011 73.7705C22.6742 75.2448 24.1118 76.4462 25.612 76.4737C28.5674 76.5267 28.8975 74.1847 29.4405 72.0154C31.9134 75.4293 32.1869 80.9536 30.1163 84.3988C28.4228 87.2159 24.7916 88.382 22.1937 86.733C20.9396 85.936 19.7266 84.8523 18.9121 83.6214C15.402 78.319 15.4039 72.8124 18.4062 67.1547C17.6952 66.8818 16.9666 66.605 16.1638 66.2968C15.859 67.0055 15.5524 67.5827 15.3551 68.1952C14.6812 70.3016 13.9331 72.2451 14.4214 74.701C14.9996 77.6123 14.6206 80.716 14.6558 83.7137C15.232 83.7726 15.6364 83.8138 16.0426 83.857C15.8375 85.137 15.652 86.3031 15.4664 87.4574C16.7204 87.7381 17.6092 89.3813 17.3123 90.6475C17.7264 90.6671 18.1308 90.6887 18.5449 90.7083C18.5624 91.2305 18.5742 91.6506 18.5839 91.9255C19.9063 92.7696 21.0959 93.5274 22.6273 94.505C22.7132 94.7661 22.9555 95.4885 23.2113 96.2581C23.3911 96.2365 23.9224 96.0971 23.9614 96.1835C24.817 98.0799 26.5457 97.6166 27.9872 97.5773C28.8877 97.5538 29.419 97.6657 29.7101 98.5255C30.1085 99.7073 30.8684 99.6779 31.9173 99.3598C32.6557 99.136 34.0328 99.0006 34.232 99.3461C35.32 101.231 36.5232 100.275 37.7636 99.9233C38.5547 100.235 39.5216 100.597 40.1291 100.273C42.0043 99.2754 43.9224 99.4992 45.7742 99.9076C47.0946 100.2 48.21 100.392 49.3156 99.6327C50.5286 99.7584 52.0971 100.055 52.7749 99.407C54.5602 97.703 56.9081 98.0131 58.7228 97.9915C60.4827 97.9719 61.1625 97.8973 61.3344 96.3563C62.5435 96.2718 63.6315 96.2071 64.7156 96.1069C64.8406 96.0952 64.9695 95.9165 65.0652 95.7909C65.8485 94.7563 66.8173 94.6778 67.6241 95.4944C69.1633 94.1477 70.7005 92.803 71.8218 91.8234C73.6598 91.5132 75.0193 91.2816 76.5019 91.0322C76.455 90.6259 76.4043 90.1822 76.3769 89.9466C77.3712 89.4735 78.2033 89.0789 79.0432 88.6785C78.9299 88.276 78.8186 87.8775 78.6799 87.3848C80.057 87.1138 81.1235 86.6447 80.1859 84.8052C81.8892 85.2548 83.3229 85.6336 85.118 86.1068C84.3855 84.1299 83.7761 82.4848 83.0651 80.5629C84.0964 80.9418 84.8465 81.2166 85.327 81.3933C86.1787 80.4588 86.9229 79.6422 87.7062 78.7823C87.3272 78.0481 86.8702 77.1667 86.2021 75.8749C87.4796 76.3736 88.3137 76.6994 89.1927 77.041C88.8586 75.6119 88.5383 74.2396 88.2277 72.9126C89.2708 72.8969 90.0306 72.8851 90.7885 72.8753C90.8139 72.7123 90.8393 72.5474 90.8647 72.3845C89.9662 71.3244 89.0657 70.2643 88.0343 69.0452C88.7688 68.9235 89.2649 68.841 89.7669 68.7586C89.6693 68.3267 89.597 68.0087 89.513 67.6376C90.3979 67.6789 91.1343 67.7122 92.2301 67.7633C91.1265 66.6286 90.2357 65.7118 89.2532 64.7008C90.1088 64.4515 90.7885 64.2512 91.9175 63.9234C90.2475 62.7004 88.9446 61.7463 87.5089 60.696C88.3 60.429 88.8215 60.2523 89.556 60.003C88.7297 59.4534 88.1203 59.049 87.4073 58.5758C87.9464 58.1773 88.3879 57.8495 88.9641 57.4254C86.8663 56.4674 84.9442 55.5899 82.8287 54.6241C83.8816 54.1765 84.6395 53.8545 85.3954 53.5326C85.3837 53.3893 85.372 53.244 85.3602 53.1007C84.5242 52.922 83.6882 52.7453 82.4029 52.4725C84.3601 51.7756 85.8974 51.2298 87.8351 50.5388C86.7022 50.0303 85.958 49.6966 84.7606 49.1626C86.0713 48.8407 86.9366 48.6287 87.7413 48.4324C87.9113 47.545 88.0793 46.6655 88.2746 45.6408C81.4595 44.938 75.4999 47.5509 69.3371 49.2255C73.8903 44.6043 80.0238 43.0789 85.8212 40.8684C80.5375 39.9026 75.3768 39.6061 70.5326 42.5057C70.4525 42.3251 70.3704 42.1464 70.2904 41.9658C72.8355 40.2461 75.3788 38.5284 77.9454 36.793C72.605 35.884 67.4854 36.9245 62.4478 38.7895C65.4442 35.0792 69.1516 32.4309 73.4606 30.5738C69.2512 30.6307 65.3152 31.7536 61.6782 33.6147C58.0411 35.4757 54.6188 37.7627 51.0364 39.9026C55.5603 33.597 60.3284 27.5761 68.0245 23.9561C64.4773 24.1799 57.1093 27.2973 55.9022 28.8698C56.4901 28.6479 57.0996 28.4183 57.707 28.1866C55.5584 29.9259 53.0972 31.145 51.0325 32.8471C48.9386 34.5746 47.2333 36.7792 45.3562 38.7757C45.5496 37.5036 45.8855 36.2492 46.411 35.0811C48.1768 31.147 50.009 27.2443 51.8041 23.3259C51.8295 23.2709 51.7182 23.1512 51.6713 23.0609C51.6263 23.0923 51.5814 23.1237 51.5384 23.1551L51.5619 23.1885ZM24.5767 79.3281C23.311 79.5067 22.3441 81.0164 22.5121 82.5535C22.6742 84.0435 23.8755 85.08 25.2701 84.9328C26.7215 84.7797 27.6415 83.3957 27.4325 81.6779C27.2254 79.9739 26.1687 79.1043 24.5767 79.3281ZM27.872 33.4537C28.0829 33.5695 28.2958 33.6834 28.5068 33.7992C29.2725 32.3327 30.0382 30.8663 30.8039 29.3998C30.6398 29.3115 30.4758 29.2231 30.3097 29.1348C29.4971 30.5757 28.6846 32.0147 27.872 33.4537Z" fill="black"/>
<path d="M41.6077 73.1305C40.7033 66.3597 44.9128 60.2445 51.0501 59.4161C57.7773 58.5071 63.9381 63.2383 64.7995 69.9738C65.6375 76.5385 61.0531 82.3729 54.3532 83.2661C48.0498 84.1063 42.4828 79.6795 41.6077 73.1305ZM49.5167 62.5453C46.8778 62.7946 44.6471 65.4429 44.9225 68.0028C45.1882 70.4783 47.5087 72.3354 49.9855 72.0567C52.5249 71.7681 54.5758 69.161 54.3004 66.5736C54.0094 63.8822 52.1283 62.2979 49.5167 62.5453ZM57.459 79.3909C59.0626 79.2123 60.43 77.3866 60.221 75.7061C60.01 74.0218 58.3946 72.8223 56.6932 73.0893C55.0544 73.3464 53.8844 74.9798 54.1149 76.6857C54.3317 78.2778 55.9197 79.5637 57.459 79.3909Z" fill="black"/>
<path d="M34.5641 84.0357C37.0448 85.9458 40.3166 85.4256 41.9594 82.8637C40.9202 82.3984 39.881 81.9351 38.4082 81.2755C39.1114 80.7239 39.5255 80.3999 39.9396 80.078C39.8752 79.9445 39.8088 79.813 39.7443 79.6795C38.3438 79.9092 36.9432 80.1388 35.2067 80.4215C37.875 82.4534 35.0387 82.9245 34.5641 84.0357Z" fill="black"/>
<path d="M51.5619 23.1885C50.8333 23.4358 50.0246 23.5556 49.3878 23.9541C45.3542 26.4806 43.1977 30.401 41.6526 34.7415C41.2561 35.8565 40.9631 37.0089 40.4846 38.6049C42.2035 35.8212 43.5903 33.4066 45.1471 31.1077C46.7313 28.7677 48.4639 26.5297 50.177 24.28C50.5227 23.8265 51.0638 23.5222 51.5228 23.1551C51.5306 23.159 51.5619 23.1885 51.5619 23.1885Z" fill="black"/>
<path d="M28.8603 72.5082C28.9326 70.0523 27.6258 68.5937 25.3287 68.5662C23.5024 68.5446 21.8108 70.4685 21.717 72.677C21.6272 74.8188 23.1019 76.5443 25.1041 76.6386C27.1883 76.7367 28.7861 74.9797 28.8603 72.5082Z" fill="white"/>
<path d="M54.2985 66.5717C54.0114 63.8822 52.1303 62.2979 49.5168 62.5453C46.8778 62.7946 44.6471 65.4429 44.9225 68.0028C45.1882 70.4783 47.5087 72.3354 49.9856 72.0567C52.5229 71.7681 54.5739 69.1591 54.2985 66.5717Z" fill="white"/>
<path d="M54.2868 76.5836C54.5017 78.1757 56.0897 79.4616 57.6309 79.2888C59.2346 79.1102 60.6019 77.2845 60.3929 75.604C60.1819 73.9197 58.5665 72.7202 56.8652 72.9872C55.2263 73.2444 54.0563 74.8757 54.2868 76.5836Z" fill="white"/>
<path d="M22.7113 82.2473C22.8813 83.5037 24.1353 84.5186 25.3503 84.3831C26.616 84.2418 27.6962 82.8009 27.5302 81.4738C27.3641 80.1428 26.0886 79.1966 24.7447 79.4086C23.4516 79.6127 22.5277 80.9006 22.7113 82.2473Z" fill="white"/>
<defs>
<linearGradient id="paint0_linear_193_159" x1="88.1125" y1="41.471" x2="12.0044" y2="87.767" gradientUnits="userSpaceOnUse">
<stop stop-color="#FFB317"/>
<stop offset="1" stop-color="#B96800"/>
</linearGradient>
</defs>
</svg>
